<svg width="124" height="127" viewBox="0 0 124 127" fill="none" xmlns="http://www.w3.org/2000/svg">
<g clip-path="url(#clip0_4008_2)" filter="url(#filter0_d_4008_2)">
<g filter="url(#filter1_d_4008_2)">
<path d="M62.004 67.892C59.796 67.892 58.06 67.26 56.796 65.996C55.532 64.732 54.9 62.884 54.9 60.452V50.9H57.3V60.356C57.3 62.228 57.708 63.596 58.524 64.46C59.356 65.324 60.524 65.756 62.028 65.756C63.548 65.756 64.716 65.324 65.532 64.46C66.364 63.596 66.78 62.228 66.78 60.356V50.9H69.108V60.452C69.108 62.884 68.476 64.732 67.212 65.996C65.964 67.26 64.228 67.892 62.004 67.892Z" fill="#D4758E"/>
</g>
</g>
<defs>
<filter id="filter0_d_4008_2" x="-15.3838" y="-14.2" width="154.8" height="154.8" filterUnits="userSpaceOnUse" color-interpolation-filters="sRGB">
<feFlood flood-opacity="0" result="BackgroundImageFix"/>
<feColorMatrix in="SourceAlpha" type="matrix" values="0 0 0 0 0 0 0 0 0 0 0 0 0 0 0 0 0 0 127 0" result="hardAlpha"/>
<feMorphology radius="27" operator="dilate" in="SourceAlpha" result="effect1_dropShadow_4008_2"/>
<feOffset dy="4"/>
<feGaussianBlur stdDeviation="13.95"/>
<feComposite in2="hardAlpha" operator="out"/>
<feColorMatrix type="matrix" values="0 0 0 0 0.831373 0 0 0 0 0.458824 0 0 0 0 0.556863 0 0 0 1 0"/>
<feBlend mode="normal" in2="BackgroundImageFix" result="effect1_dropShadow_4008_2"/>
<feBlend mode="normal" in="SourceGraphic" in2="effect1_dropShadow_4008_2" result="shape"/>
</filter>
<filter id="filter1_d_4008_2" x="44.9" y="44.9" width="34.208" height="36.992" filterUnits="userSpaceOnUse" color-interpolation-filters="sRGB">
<feFlood flood-opacity="0" result="BackgroundImageFix"/>
<feColorMatrix in="SourceAlpha" type="matrix" values="0 0 0 0 0 0 0 0 0 0 0 0 0 0 0 0 0 0 127 0" result="hardAlpha"/>
<feOffset dy="4"/>
<feGaussianBlur stdDeviation="5"/>
<feComposite in2="hardAlpha" operator="out"/>
<feColorMatrix type="matrix" values="0 0 0 0 0.831373 0 0 0 0 0.458824 0 0 0 0 0.556863 0 0 0 0.25 0"/>
<feBlend mode="darken" in2="BackgroundImageFix" result="effect1_dropShadow_4008_2"/>
<feBlend mode="normal" in="SourceGraphic" in2="effect1_dropShadow_4008_2" result="shape"/>
</filter>
<clipPath id="clip0_4008_2">
<rect width="45" height="45" fill="white" transform="translate(39.5162 36.7)"/>
</clipPath>
</defs>
</svg>
